<svg width="18" height="18" viewBox="0 0 18 18" fill="none" xmlns="http://www.w3.org/2000/svg">
<path d="M9.72628 16.9983C8.99499 17.0183 8.26899 16.8689 7.60494 16.562C5.83265 15.6769 4.92677 15.6582 4.91846 15.6582C4.86336 15.6582 4.81051 15.6363 4.77155 15.5973C4.73258 15.5584 4.71069 15.5055 4.71069 15.4504C4.71069 15.3953 4.73258 15.3425 4.77155 15.3035C4.81051 15.2645 4.86336 15.2426 4.91846 15.2426C4.95794 15.2426 5.91368 15.2551 7.78778 16.1901C9.46241 17.0212 11.9951 16.2628 12.2403 16.1901L16.2233 13.8817C16.3051 13.8345 16.3769 13.7717 16.4344 13.6967C16.492 13.6218 16.5342 13.5363 16.5587 13.445C16.5832 13.3538 16.5895 13.2586 16.5772 13.1649C16.565 13.0712 16.5343 12.9808 16.4871 12.899C16.4399 12.8171 16.3771 12.7454 16.3021 12.6878C16.2272 12.6303 16.1417 12.588 16.0504 12.5635C15.9591 12.539 15.864 12.5327 15.7703 12.545C15.6766 12.5573 15.5862 12.5879 15.5044 12.6351L12.3878 14.4282C12.3642 14.4432 12.3377 14.4533 12.3101 14.4579C12.2824 14.4624 12.2541 14.4613 12.2269 14.4546C12.1997 14.448 12.1741 14.4359 12.1517 14.4191C12.1293 14.4023 12.1105 14.3811 12.0965 14.3568C12.0824 14.3326 12.0735 14.3057 12.0701 14.2779C12.0667 14.2501 12.069 14.2219 12.0768 14.195C12.0846 14.168 12.0978 14.143 12.1155 14.1213C12.1333 14.0996 12.1552 14.0817 12.18 14.0687L15.2966 12.2736C15.5568 12.1309 15.8625 12.0958 16.1483 12.1759C16.434 12.2559 16.677 12.4448 16.8252 12.7019C16.9733 12.9591 17.0148 13.264 16.9407 13.5514C16.8667 13.8387 16.6829 14.0856 16.429 14.2391L12.4273 16.5599L12.3899 16.5765C11.5269 16.8445 10.6298 16.9866 9.72628 16.9983Z" fill="white" stroke="white" stroke-width="0.8"/>
<path d="M11.3886 15.1059H8.61483C8.55973 15.1059 8.50688 15.084 8.46792 15.045C8.42895 15.0061 8.40706 14.9532 8.40706 14.8981C8.40706 14.843 8.42895 14.7902 8.46792 14.7512C8.50688 14.7122 8.55973 14.6904 8.61483 14.6904H11.3886C11.5669 14.6737 11.7325 14.5911 11.8531 14.4587C11.9737 14.3263 12.0406 14.1537 12.0406 13.9746C12.0406 13.7955 11.9737 13.6229 11.8531 13.4905C11.7325 13.3581 11.5669 13.2755 11.3886 13.2588C11.3719 13.2588 10.3788 13.2297 9.72641 13.2588C9.18205 13.2837 8.70002 13.0136 8.23254 12.7539C7.844 12.5462 7.47625 12.3384 7.12512 12.3384H4.91236C4.85726 12.3384 4.80441 12.3165 4.76544 12.2775C4.72648 12.2386 4.70459 12.1857 4.70459 12.1306C4.70459 12.0755 4.72648 12.0227 4.76544 11.9837C4.80441 11.9447 4.85726 11.9229 4.91236 11.9229H7.13343C7.5926 11.9229 8.02476 12.1639 8.44446 12.3966C8.86416 12.6293 9.29217 12.8557 9.72641 12.8433C10.3913 12.8142 11.3678 12.8433 11.4093 12.8433C11.7015 12.8558 11.9776 12.9807 12.18 13.1919C12.3823 13.403 12.4952 13.6842 12.4952 13.9767C12.4952 14.2691 12.3823 14.5503 12.18 14.7615C11.9776 14.9727 11.7015 15.0975 11.4093 15.1101L11.3886 15.1059Z" fill="white" stroke="white" stroke-width="0.8"/>
<path d="M4.08124 16.7721H2.03885C1.76333 16.7721 1.4991 16.6627 1.30427 16.4678C1.10945 16.273 1 16.0088 1 15.7333V11.8396C1 11.5641 1.10945 11.2999 1.30427 11.1051C1.4991 10.9102 1.76333 10.8008 2.03885 10.8008H4.08124C4.35676 10.8008 4.621 10.9102 4.81582 11.1051C5.01064 11.2999 5.12009 11.5641 5.12009 11.8396V15.7333C5.12009 16.0088 5.01064 16.273 4.81582 16.4678C4.621 16.6627 4.35676 16.7721 4.08124 16.7721ZM2.03885 11.2163C1.87354 11.2163 1.715 11.282 1.5981 11.3989C1.48121 11.5158 1.41554 11.6743 1.41554 11.8396V15.7333C1.41554 15.8986 1.48121 16.0571 1.5981 16.174C1.715 16.2909 1.87354 16.3566 2.03885 16.3566H4.08124C4.24655 16.3566 4.40509 16.2909 4.52199 16.174C4.63888 16.0571 4.70455 15.8986 4.70455 15.7333V11.8396C4.70455 11.6743 4.63888 11.5158 4.52199 11.3989C4.40509 11.282 4.24655 11.2163 4.08124 11.2163H2.03885Z" fill="white" stroke="white" stroke-width="0.8"/>
<path d="M9.51853 9.20746C8.96377 9.20746 8.42147 9.04296 7.96021 8.73475C7.49894 8.42654 7.13943 7.98848 6.92713 7.47595C6.71484 6.96342 6.65929 6.39945 6.76752 5.85535C6.87575 5.31125 7.14289 4.81147 7.53516 4.41919C7.92743 4.02692 8.42722 3.75978 8.97132 3.65155C9.51542 3.54333 10.0794 3.59887 10.5919 3.81117C11.1044 4.02346 11.5425 4.38298 11.8507 4.84424C12.1589 5.3055 12.3234 5.8478 12.3234 6.40256C12.3223 7.14613 12.0265 7.85893 11.5007 8.38471C10.9749 8.9105 10.2621 9.20636 9.51853 9.20746ZM9.51853 4.0132C9.04596 4.0132 8.584 4.15333 8.19107 4.41588C7.79814 4.67842 7.49189 5.05159 7.31104 5.48819C7.1302 5.92479 7.08288 6.40521 7.17508 6.8687C7.26727 7.33219 7.49483 7.75794 7.82899 8.09209C8.16315 8.42625 8.5889 8.65382 9.05239 8.74601C9.51588 8.8382 9.9963 8.79089 10.4329 8.61004C10.8695 8.4292 11.2427 8.12295 11.5052 7.73002C11.7678 7.33709 11.9079 6.87513 11.9079 6.40256C11.9073 5.76903 11.6554 5.16161 11.2075 4.71363C10.7595 4.26566 10.1521 4.01375 9.51853 4.0132Z" fill="white" stroke="white" stroke-width="0.8"/>
<path d="M10.0379 11.8041H8.99906C8.8521 11.8035 8.71132 11.7449 8.6074 11.641C8.50349 11.5371 8.44486 11.3963 8.44432 11.2493V10.8109C7.97775 10.6976 7.53233 10.5103 7.12497 10.2562L6.86942 10.5117C6.76543 10.6154 6.62459 10.6736 6.47777 10.6736C6.33094 10.6736 6.1901 10.6154 6.08612 10.5117L5.36308 9.77831C5.25929 9.67397 5.20103 9.53279 5.20103 9.38562C5.20103 9.23846 5.25929 9.09727 5.36308 8.99294L5.63318 8.72283C5.39963 8.33585 5.22657 7.91546 5.11999 7.47621H4.6712C4.52424 7.47566 4.38346 7.41704 4.27954 7.31312C4.17562 7.20921 4.117 7.06842 4.11646 6.92146V5.88261C4.117 5.73565 4.17562 5.59487 4.27954 5.49095C4.38346 5.38703 4.52424 5.32841 4.6712 5.32786H5.1096C5.22497 4.85473 5.41654 4.40351 5.67681 3.9919L5.36308 3.6657C5.31035 3.61696 5.26778 3.55828 5.23783 3.49302C5.20788 3.42777 5.19113 3.35723 5.18855 3.28548C5.18855 3.20993 5.20403 3.13518 5.23405 3.06586C5.26407 2.99653 5.30798 2.93409 5.36308 2.8824L6.09651 2.14897C6.20049 2.04531 6.34133 1.98711 6.48816 1.98711C6.63498 1.98711 6.77582 2.04531 6.8798 2.14897L7.22678 2.49387C7.60916 2.26732 8.02295 2.09859 8.45471 1.99314V1.55475C8.45521 1.40956 8.5124 1.27032 8.61409 1.16669C8.71578 1.06306 8.85392 1.00325 8.99906 1H10.0379C10.1849 1.00055 10.3257 1.05917 10.4296 1.16309C10.5335 1.267 10.5921 1.40779 10.5927 1.55475V1.99314C11.0319 2.09973 11.4523 2.27279 11.8393 2.50634L12.1967 2.14897C12.3006 2.04531 12.4415 1.98711 12.5883 1.98711C12.7351 1.98711 12.876 2.04531 12.9799 2.14897L13.7155 2.8824C13.8191 2.98639 13.8773 3.12722 13.8773 3.27405C13.8773 3.42087 13.8191 3.56171 13.7155 3.6657L13.3726 4.00852C13.6268 4.41587 13.8141 4.86129 13.9274 5.32786H14.3658C14.5127 5.32841 14.6535 5.38703 14.7574 5.49095C14.8614 5.59487 14.92 5.73565 14.9205 5.88261V6.92146C14.92 7.06842 14.8614 7.20921 14.7574 7.31312C14.6535 7.41704 14.5127 7.47566 14.3658 7.47621H13.9274C13.8219 7.90797 13.6532 8.32176 13.4267 8.70413L13.7155 8.99294C13.8192 9.09727 13.8775 9.23846 13.8775 9.38562C13.8775 9.53279 13.8192 9.67397 13.7155 9.77831L12.9799 10.5117C12.876 10.6154 12.7351 10.6736 12.5883 10.6736C12.4415 10.6736 12.3006 10.6154 12.1967 10.5117L11.9286 10.2458C11.5169 10.5054 11.0657 10.6963 10.5927 10.8109V11.2493C10.5921 11.3963 10.5335 11.5371 10.4296 11.641C10.3257 11.7449 10.1849 11.8035 10.0379 11.8041ZM7.09796 9.78246C7.1394 9.78237 7.17992 9.79467 7.21431 9.81778C7.66091 10.1221 8.16389 10.3341 8.69364 10.4411C8.74128 10.4508 8.784 10.4769 8.81437 10.5149C8.84474 10.5528 8.86084 10.6003 8.85986 10.6489V11.2535C8.85986 11.2904 8.87452 11.3258 8.90063 11.3519C8.92674 11.378 8.96214 11.3927 8.99906 11.3927H10.0379C10.0748 11.3927 10.1102 11.378 10.1364 11.3519C10.1625 11.3258 10.1771 11.2904 10.1771 11.2535V10.6447C10.1761 10.5961 10.1922 10.5487 10.2226 10.5107C10.253 10.4728 10.2957 10.4467 10.3433 10.4369C10.8784 10.3305 11.3869 10.1186 11.8393 9.81363C11.8793 9.78641 11.9275 9.774 11.9757 9.77856C12.0239 9.78311 12.069 9.80433 12.1032 9.83856L12.4917 10.225C12.5044 10.238 12.5196 10.2482 12.5364 10.2552C12.5532 10.2623 12.5712 10.2659 12.5893 10.2659C12.6075 10.2659 12.6255 10.2623 12.6423 10.2552C12.659 10.2482 12.6742 10.238 12.687 10.225L13.4204 9.48951C13.4334 9.47675 13.4436 9.46155 13.4507 9.44478C13.4577 9.42802 13.4613 9.41003 13.4613 9.39185C13.4613 9.37368 13.4577 9.35569 13.4507 9.33893C13.4436 9.32216 13.4334 9.30696 13.4204 9.2942L13.0049 8.87866C12.9714 8.84499 12.9504 8.80084 12.9455 8.75358C12.9406 8.70632 12.952 8.6588 12.9779 8.61895C13.2549 8.19672 13.4515 7.72687 13.5576 7.23312C13.5673 7.18548 13.5934 7.14276 13.6313 7.11239C13.6693 7.08202 13.7167 7.06592 13.7653 7.0669H14.3699C14.3884 7.06637 14.4066 7.06217 14.4234 7.05454C14.4402 7.04691 14.4554 7.03601 14.4679 7.02248C14.4805 7.00894 14.4903 6.99304 14.4966 6.97569C14.503 6.95835 14.5058 6.93992 14.505 6.92146V5.88261C14.505 5.84569 14.4903 5.81028 14.4642 5.78418C14.4381 5.75807 14.4027 5.7434 14.3658 5.7434H13.7612C13.7126 5.74438 13.6651 5.72829 13.6272 5.69792C13.5892 5.66755 13.5631 5.62482 13.5534 5.57719C13.4464 5.04744 13.2344 4.54446 12.9301 4.09786C12.9029 4.05786 12.8905 4.00961 12.895 3.96143C12.8996 3.91326 12.9208 3.86819 12.955 3.83399L13.4163 3.37274C13.4292 3.35998 13.4395 3.34478 13.4465 3.32802C13.4535 3.31125 13.4571 3.29326 13.4571 3.27509C13.4571 3.25692 13.4535 3.23892 13.4465 3.22216C13.4395 3.2054 13.4292 3.19019 13.4163 3.17744L12.6828 2.44193C12.6701 2.42899 12.6549 2.41871 12.6381 2.4117C12.6213 2.40468 12.6034 2.40107 12.5852 2.40107C12.567 2.40107 12.549 2.40468 12.5323 2.4117C12.5155 2.41871 12.5003 2.42899 12.4875 2.44193L12.0117 2.91564C11.9781 2.94917 11.9339 2.97013 11.8867 2.97505C11.8394 2.97996 11.7919 2.96853 11.752 2.94266C11.3244 2.66439 10.8489 2.46784 10.3496 2.36298C10.3019 2.35326 10.2592 2.32715 10.2288 2.28919C10.1985 2.25122 10.1824 2.20381 10.1834 2.1552V1.55475C10.1834 1.53593 10.1796 1.5173 10.1722 1.5C10.1648 1.48269 10.154 1.46705 10.1404 1.45404C10.1268 1.44103 10.1107 1.43091 10.0931 1.42429C10.0755 1.41768 10.0567 1.4147 10.0379 1.41554H8.99906C8.98078 1.41554 8.96268 1.41914 8.94579 1.42614C8.9289 1.43313 8.91356 1.44339 8.90063 1.45631C8.8877 1.46924 8.87745 1.48459 8.87045 1.50148C8.86346 1.51837 8.85986 1.53647 8.85986 1.55475V2.15936C8.86084 2.20797 8.84474 2.25538 8.81437 2.29334C8.784 2.33131 8.74128 2.35742 8.69364 2.36713C8.197 2.46879 7.72356 2.66183 7.29742 2.93642C7.25757 2.9623 7.21005 2.97373 7.16279 2.96881C7.11553 2.9639 7.07139 2.94293 7.03771 2.90941L6.57646 2.44608C6.56323 2.43173 6.54717 2.42027 6.52929 2.41244C6.51141 2.4046 6.4921 2.40055 6.47257 2.40055C6.45305 2.40055 6.43374 2.4046 6.41586 2.41244C6.39798 2.42027 6.38192 2.43173 6.36869 2.44608L5.63526 3.18159C5.6219 3.19406 5.6113 3.2092 5.60414 3.22602C5.59698 3.24284 5.59343 3.26097 5.5937 3.27924C5.59368 3.29748 5.59735 3.31554 5.60449 3.33232C5.61163 3.34911 5.6221 3.36427 5.63526 3.3769L6.07989 3.82152C6.1138 3.85598 6.13464 3.90118 6.13881 3.94935C6.14298 3.99751 6.13023 4.04562 6.10274 4.08539C5.79779 4.53775 5.5859 5.04628 5.47943 5.58134C5.46972 5.62898 5.44361 5.6717 5.40564 5.70207C5.36768 5.73244 5.32027 5.74854 5.27166 5.74756H4.6712C4.63428 5.74756 4.59887 5.76222 4.57277 5.78833C4.54666 5.81444 4.532 5.84984 4.532 5.88676V6.92562C4.532 6.96254 4.54666 6.99795 4.57277 7.02405C4.59887 7.05016 4.63428 7.06482 4.6712 7.06482H5.27582C5.32442 7.06384 5.37183 7.07994 5.4098 7.11031C5.44776 7.14068 5.47387 7.1834 5.48359 7.23104C5.58698 7.73467 5.78358 8.21455 6.06327 8.64596C6.08601 8.68522 6.09527 8.73084 6.08964 8.77587C6.08401 8.82089 6.06381 8.86283 6.0321 8.89528L5.64565 9.28174C5.63245 9.29435 5.62194 9.3095 5.61476 9.32629C5.60759 9.34307 5.60388 9.36113 5.60388 9.37939C5.60388 9.39764 5.60759 9.41571 5.61476 9.43249C5.62194 9.44928 5.63245 9.46443 5.64565 9.47704L6.37908 10.2125C6.39231 10.2269 6.40837 10.2384 6.42625 10.2462C6.44413 10.254 6.46344 10.2581 6.48296 10.2581C6.50248 10.2581 6.52179 10.254 6.53967 10.2462C6.55755 10.2384 6.57362 10.2269 6.58685 10.2125L6.96083 9.83648C6.99841 9.80232 7.04719 9.78311 7.09796 9.78246Z" fill="white" stroke="white" stroke-width="0.8"/>
</svg>
